<?xml version="1.0" standalone="no"?>
<!DOCTYPE svg PUBLIC "-//W3C//DTD SVG 20010904//EN"
 "http://www.w3.org/TR/2001/REC-SVG-20010904/DTD/svg10.dtd">
<svg version="1.0" xmlns="http://www.w3.org/2000/svg"
 width="900.000000pt" height="506.000000pt" viewBox="0 0 900.000000 506.000000"
 preserveAspectRatio="xMidYMid meet">

<g transform="translate(0.000000,506.000000) scale(0.100000,-0.100000)"
fill="#000000" stroke="none">
<path d="M4605 4463 c-4 -10 -83 -229 -175 -488 -275 -767 -506 -1412 -549
-1533 -43 -120 -48 -151 -29 -170 9 -9 197 -12 784 -12 863 0 808 -5 787 68
-6 20 -49 143 -95 272 -47 129 -102 283 -123 343 -43 123 -61 136 -88 65 -37
-99 -190 -527 -203 -568 -8 -25 -22 -51 -31 -57 -19 -14 -478 -19 -486 -5 -5
6 98 302 370 1062 61 171 108 317 111 346 5 60 -6 97 -138 453 -71 190 -92
237 -108 239 -11 2 -22 -4 -27 -15z"/>
<path d="M4750 1478 c-76 -30 -160 -115 -188 -191 -41 -109 -24 -238 43 -329
153 -208 467 -171 577 68 34 74 33 199 -3 275 -35 73 -85 128 -151 164 -73 40
-196 46 -278 13z m181 -109 c86 -29 149 -118 149 -210 0 -112 -91 -209 -197
-209 -128 0 -212 82 -213 208 0 149 130 254 261 211z"/>
<path d="M5395 1486 c-74 -33 -114 -114 -94 -191 8 -32 34 -63 130 -155 123
-119 136 -142 101 -173 -40 -37 -116 -13 -149 48 -10 17 -13 17 -59 -12 -27
-16 -50 -37 -52 -46 -5 -26 87 -113 133 -126 106 -29 208 9 252 92 24 48 21
128 -8 177 -14 22 -69 80 -124 128 -55 48 -101 95 -103 104 -2 8 5 23 14 33
24 23 70 13 109 -25 l30 -29 43 40 c23 22 42 44 42 48 0 14 -71 72 -106 87
-42 18 -120 17 -159 0z"/>
<path d="M2567 1483 c-4 -3 -7 -150 -7 -325 l0 -318 155 0 155 0 0 60 0 60
-90 0 -90 0 0 265 0 265 -58 0 c-32 0 -62 -3 -65 -7z"/>
<path d="M3157 1483 c-6 -11 -247 -634 -247 -639 0 -3 30 -4 67 -2 l67 3 24
63 24 63 131 -3 131 -3 24 -62 24 -63 68 0 68 0 -123 315 c-68 173 -126 319
-130 325 -7 11 -121 14 -128 3z m106 -286 c20 -51 37 -96 37 -100 0 -4 -36 -7
-81 -7 -44 0 -79 4 -77 8 2 4 19 49 38 100 19 51 37 92 41 92 3 0 22 -42 42
-93z"/>
<path d="M3620 1165 l0 -325 65 0 65 0 0 137 0 137 97 -137 96 -137 78 0 78 0
-98 138 c-53 75 -110 156 -125 179 l-27 41 110 139 c61 76 111 141 111 146 0
4 -33 7 -73 7 l-74 0 -84 -106 -84 -107 -5 104 -5 104 -62 3 -63 3 0 -326z"/>
<path d="M4180 1488 c0 -2 -1 -148 -3 -326 l-2 -322 153 0 152 0 0 60 0 60
-90 0 -90 0 0 265 0 265 -60 0 c-33 0 -60 -1 -60 -2z"/>
<path d="M5724 1476 c-3 -7 -4 -35 -2 -62 l3 -49 58 -3 57 -3 0 -259 0 -260
65 0 65 0 0 260 0 260 60 0 61 0 -3 63 -3 62 -178 3 c-145 2 -178 0 -183 -12z"/>
<path d="M6357 1478 c-3 -7 -58 -148 -122 -313 -64 -165 -119 -306 -122 -312
-4 -10 13 -13 64 -13 l69 0 24 65 24 65 131 0 131 0 23 -65 23 -65 69 0 68 0
-24 63 c-13 34 -58 150 -100 257 -42 107 -88 225 -102 263 l-25 67 -63 0 c-41
0 -65 -4 -68 -12z m107 -274 c20 -47 36 -92 36 -100 0 -11 -17 -14 -75 -14
-56 0 -75 3 -75 13 0 8 12 42 26 78 15 35 30 74 35 87 5 12 10 22 13 22 2 0
20 -39 40 -86z"/>
<path d="M3680 615 c0 -65 0 -65 28 -65 15 0 33 5 40 12 15 15 16 54 2 63 -6
4 -8 10 -5 15 11 18 -8 40 -36 40 l-29 0 0 -65z m50 40 c0 -8 -9 -15 -20 -15
-11 0 -20 7 -20 15 0 8 9 15 20 15 11 0 20 -7 20 -15z m14 -51 c8 -21 -11 -44
-35 -44 -14 0 -19 7 -19 30 0 25 4 30 24 30 13 0 27 -7 30 -16z"/>
<path d="M3811 613 c1 -38 4 -58 6 -45 5 27 19 28 35 2 17 -26 32 -26 18 0 -8
15 -7 25 4 41 24 34 3 69 -41 69 -22 0 -23 -4 -22 -67z m49 42 c16 -20 5 -45
-20 -45 -16 0 -20 7 -20 30 0 33 19 40 40 15z"/>
<path d="M3963 663 c-3 -10 -14 -39 -24 -65 -10 -27 -14 -48 -9 -48 5 0 12 11
16 25 4 18 13 25 30 25 17 0 25 -7 30 -25 3 -14 11 -25 16 -25 5 0 7 6 5 13
-3 6 -14 36 -23 65 -18 54 -30 64 -41 35z m21 -28 c3 -9 0 -15 -9 -15 -9 0
-12 6 -9 15 4 8 7 15 9 15 2 0 5 -7 9 -15z"/>
<path d="M4070 615 c0 -74 17 -89 22 -19 l3 47 33 -47 c18 -25 37 -46 43 -46
5 0 9 29 9 65 0 37 -4 65 -10 65 -5 0 -10 -24 -10 -52 l0 -53 -35 53 c-20 28
-40 52 -45 52 -6 0 -10 -29 -10 -65z"/>
<path d="M4230 615 l0 -65 34 0 c59 0 88 68 46 110 -11 11 -33 20 -50 20 l-30
0 0 -65z m64 39 c23 -22 20 -71 -3 -84 -40 -21 -51 -13 -51 38 0 27 3 52 7 55
11 12 31 8 47 -9z"/>
<path d="M4383 615 c0 -38 2 -53 4 -32 2 20 2 52 0 70 -2 17 -4 1 -4 -38z"/>
<path d="M4440 615 c0 -75 17 -89 22 -17 l3 47 33 -47 c18 -27 37 -48 42 -48
6 0 9 30 8 68 l-1 67 -6 -55 -6 -55 -38 53 c-22 28 -43 52 -48 52 -5 0 -9 -29
-9 -65z"/>
<path d="M4617 662 c-49 -54 19 -147 79 -108 19 13 23 29 14 56 -1 3 -5 -6 -9
-20 -10 -36 -54 -40 -76 -6 -30 45 8 95 62 81 16 -4 22 -2 18 5 -10 17 -70 12
-88 -8z"/>
<path d="M4850 615 l0 -65 29 0 c39 0 61 24 61 64 0 39 -26 66 -63 66 -26 0
-27 -1 -27 -65z m58 39 c12 -8 22 -25 22 -36 0 -27 -28 -58 -52 -58 -15 0 -18
8 -18 55 0 60 9 67 48 39z"/>
<path d="M4990 615 l0 -65 38 1 c30 2 32 3 10 6 -22 3 -28 10 -28 28 0 18 6
25 28 28 l27 4 -27 2 c-23 1 -28 6 -28 25 0 19 6 26 28 29 22 3 20 4 -10 6
l-38 1 0 -65z"/>
<path d="M5127 673 c-15 -14 -6 -44 17 -52 25 -10 36 -28 29 -48 -5 -15 -43
-17 -43 -3 0 6 -4 10 -10 10 -17 0 -11 -19 9 -30 27 -14 50 -3 58 28 5 20 0
30 -27 52 -33 27 -29 47 6 33 12 -4 15 -3 10 5 -8 13 -39 16 -49 5z"/>
<path d="M5243 615 c0 -38 2 -53 4 -32 2 20 2 52 0 70 -2 17 -4 1 -4 -38z"/>
<path d="M5316 658 c-29 -41 -14 -92 31 -109 32 -12 73 11 73 41 0 27 -18 25
-22 -2 -2 -16 -11 -24 -29 -26 -31 -4 -51 18 -51 55 0 36 28 56 72 48 26 -4
31 -3 20 4 -27 19 -78 13 -94 -11z"/>
<path d="M5460 615 c0 -37 4 -65 10 -65 6 0 10 23 10 52 l0 52 36 -52 c20 -29
41 -52 45 -52 5 0 8 30 7 68 l-1 67 -6 -55 -6 -55 -37 53 c-21 28 -42 52 -48
52 -6 0 -10 -28 -10 -65z"/>
</g>
</svg>
